<svg xmlns="http://www.w3.org/2000/svg" width="180" height="180" viewBox="0 0 66.559998 66.559998">
    <g>
        <path
       style="fill:#93ad18;fill-opacity:1;stroke-width:0.0854429"
       d="m -35.399414,19.224646 c 0.0017,-0.14098 0.02089,-0.18831 0.04256,-0.105177 0.02166,0.08313 0.02024,0.198481 -0.0032,0.256328 -0.0234,0.05785 -0.04113,-0.01017 -0.03939,-0.151151 z"
       />
    <path
       style="fill:#6d840d;fill-opacity:1;stroke-width:0.0854429"
       d="m 32.503817,24.391016 c -1.311047,-0.09821 -1.387061,-0.212148 -0.92833,-1.391469 0.142938,-0.36747 0.409903,-1.257856 0.593255,-1.978635 0.411603,-1.618066 0.526157,-1.901117 0.813636,-2.010416 0.290343,-0.110389 0.94743,-0.108966 1.155708,0.0025 0.244523,0.130865 0.315421,0.313238 0.586744,1.509312 0.136586,0.602106 0.404344,1.530051 0.59502,2.0621 0.190675,0.532049 0.357615,1.107725 0.370976,1.279281 0.0225,0.288833 0.0022,0.319121 -0.274755,0.409213 -0.4055,0.131925 -1.912154,0.19303 -2.912254,0.118114 z"
       id="path7397" />
    <path
       style="fill:#6d840d;fill-opacity:1;stroke-width:0.0854429"
       d="m 37.565605,23.467531 c -0.580395,-0.580395 -1.499064,-3.669796 -1.341309,-4.510701 0.04659,-0.248326 0.102377,-0.297839 0.455499,-0.404246 0.221327,-0.06669 0.959926,-0.294251 1.641333,-0.505686 0.681407,-0.211436 1.392923,-0.40961 1.581148,-0.440386 l 0.342225,-0.05596 0.699859,1.26426 c 0.825138,1.49057 1.136255,2.168557 1.136255,2.476127 0,0.381162 -0.556858,0.800881 -2.073117,1.562565 -1.597022,0.802255 -2.121724,0.934194 -2.441893,0.614025 z"
       id="path7436" />
    <path
       style="fill:#6d840d;fill-opacity:1;stroke-width:0.0854429"
       d="m 35.968257,16.221986 c 0.06653,-0.915213 0.219017,-1.747871 0.467457,-2.552626 0.453701,-1.469641 1.310136,-3.321245 2.095344,-4.5301152 0.463701,-0.7138908 1.487562,-1.9591691 1.555204,-1.8915272 0.02134,0.021341 -0.02047,0.2256767 -0.09291,0.4540788 -0.211827,0.6678676 -0.298309,1.6217166 -0.390133,4.3029276 -0.04748,1.38631 -0.108774,2.836252 -0.136216,3.222094 l -0.04989,0.701529 -0.462044,0.172873 c -0.254124,0.09508 -0.971723,0.328562 -1.594665,0.518848 -0.622941,0.190287 -1.204789,0.368073 -1.292996,0.395082 -0.152114,0.04658 -0.157221,0.0057 -0.09915,-0.793164 z"
       id="path7475" />
    <path
       style="fill:#6d840d;fill-opacity:1;stroke-width:0.0854429"
       d="M 41.304929,14.384605 C 41.056837,13.921041 41.063603,11.34262 41.31724,9.6934458 41.4358,8.9225521 41.89028,7.312521 42.248015,6.3960954 c 0.486331,-1.2458528 1.000255,-1.740841 2.349499,-2.262929 0.914991,-0.3540542 1.280145,-0.4007098 1.510068,-0.1929409 0.269998,0.2439819 0.581079,0.9169958 0.771002,1.6680409 0.14885,0.5886215 0.158425,0.7520511 0.07541,1.2871065 -0.337757,2.1768967 -2.106938,5.0966831 -4.09274,6.7544981 -1.169404,0.976257 -1.375095,1.073363 -1.556323,0.734734 z"
       id="path7514" />
    <path
       style="fill:#6d840d;fill-opacity:1;stroke-width:0.0854429"
       d="m 43.324758,19.64942 c -0.37196,-0.40135 -1.565004,-2.942684 -1.460695,-3.111461 0.02535,-0.04101 0.497771,-0.420116 1.04983,-0.842451 0.957086,-0.732189 2.358363,-2.084158 3.038801,-2.931871 0.174189,-0.217011 0.663927,-0.909098 1.088307,-1.537972 0.710466,-1.052815 0.767935,-1.116328 0.72535,-0.801635 -0.02544,0.187975 -0.106078,0.799084 -0.179202,1.358022 -0.261967,2.002408 -1.015535,4.268036 -1.898744,5.708644 -0.756167,1.233388 -1.768056,2.374772 -2.105344,2.374772 -0.03194,0 -0.148179,-0.09722 -0.258303,-0.216048 z"
       id="path7553" />
    <path
       style="fill:#6d840d;fill-opacity:1;stroke-width:0.0854429"
       d="m 48.799181,24.630791 c -0.875597,-0.430309 -1.591994,-0.814292 -1.591994,-0.853296 0,-0.149746 0.755543,-0.886252 1.405496,-1.370083 1.297368,-0.965772 3.995174,-2.129235 5.771705,-2.489121 0.352452,-0.0714 1.102213,-0.153773 1.666136,-0.183055 l 1.025315,-0.05324 -0.59046,0.369425 c -1.269607,0.794337 -2.043205,1.452152 -3.85257,3.275963 -1.033858,1.042113 -1.961168,1.937733 -2.060688,1.990268 -0.154917,0.08178 -0.409949,-0.01703 -1.77294,-0.686862 z"
       id="path7592" />
    <path
       style="fill:#6d840d;fill-opacity:1;stroke-width:0.0854429"
       d="m 41.35435,28.224481 c -0.506339,-0.420818 -2.862336,-2.736692 -2.862336,-2.813592 0,-0.02931 0.317207,-0.196924 0.704904,-0.372469 0.892436,-0.404085 2.864949,-1.465512 3.568535,-1.920262 0.29582,-0.191198 0.604935,-0.347633 0.686921,-0.347633 0.2012,0 1.020641,0.908507 1.020641,1.131576 0,0.09786 -0.207378,0.527319 -0.460841,0.954347 -0.253462,0.427027 -0.700588,1.25703 -0.993613,1.84445 -0.588142,1.179034 -1.0172,1.880036 -1.150184,1.879191 -0.04775,-3.03e-4 -0.279059,-0.160327 -0.514027,-0.355608 z"
       id="path7631" />
    <path
       style="fill:#6d840d;fill-opacity:1;stroke-width:0.0854429"
       d="m 46.728092,30.929921 c -0.798036,-0.23607 -2.354172,-0.811055 -2.752484,-1.017029 -0.237,-0.122558 -0.271579,-0.184291 -0.271579,-0.484853 0,-0.445291 0.427239,-1.470596 1.154188,-2.769863 0.854087,-1.5265 0.997189,-1.761414 1.056249,-1.733911 0.200558,0.0934 3.904487,1.973764 3.927222,1.993727 0.042,0.03688 -0.282997,1.20945 -0.681888,2.460189 -0.28606,0.896954 -0.407672,1.1575 -0.668006,1.431168 -0.278518,0.292784 -0.36529,0.33401 -0.694638,0.33003 -0.206999,-0.0025 -0.688078,-0.09676 -1.069064,-0.209458 z"
       id="path7670" />
    <path
       style="fill:#6d840d;fill-opacity:1;stroke-width:0.0854429"
       d="m 50.482259,30.897134 c 0.06456,-0.617657 0.66206,-2.466267 0.963258,-2.980223 0.220083,-0.375544 0.223255,-0.377247 0.618812,-0.332318 2.721933,0.309165 5.80817,0.224468 7.34565,-0.20159 0.336312,-0.0932 0.639596,-0.169448 0.673965,-0.169448 0.03437,0 -0.167003,0.232533 -0.447493,0.51674 -0.983938,0.996975 -3.040133,2.140027 -5.071177,2.819098 -1.128929,0.377453 -3.232744,0.850863 -3.781202,0.850863 h -0.3544 z"
       id="path7709" />
    <path
       style="fill:#6d840d;fill-opacity:1;stroke-width:0.0854429"
       d="m 54.298945,26.227811 c -0.933253,-0.121193 -1.599873,-0.274127 -1.666782,-0.382389 -0.119128,-0.192751 1.756862,-2.175828 3.061711,-3.236482 1.398306,-1.136621 4.028176,-2.401701 4.992699,-2.401701 0.683457,0 2.864782,0.852731 2.985402,1.167064 0.05285,0.137734 -0.177514,0.837552 -0.534768,1.624536 -0.312486,0.688361 -0.833488,1.303491 -1.370668,1.618299 -0.910893,0.533819 -2.542427,1.065408 -4.39165,1.430895 -1.435519,0.283721 -2.01481,0.317578 -3.075944,0.179778 z"
       id="path7748" />
    <path
       style="fill:#6d840d;fill-opacity:1;stroke-width:0.0854429"
       d="m 43.132332,36.078253 c -0.03802,-0.05874 -0.08106,-1.140329 -0.09566,-2.403527 -0.02156,-1.866548 -0.0056,-2.288928 0.08544,-2.2551 1.570779,0.583888 4.37437,1.43251 4.734011,1.432943 0.324406,3.93e-4 0.47422,0.275612 0.477693,0.877565 0.0052,0.902991 -0.0077,0.912779 -1.895619,1.433686 -0.540426,0.149114 -1.46175,0.439894 -2.047387,0.646177 -1.195494,0.421096 -1.163917,0.414366 -1.258482,0.268256 z"
       id="path7787" />
    <path
       style="fill:#6d840d;fill-opacity:1;stroke-width:0.0854429"
       d="m 28.655973,23.588898 c -0.855947,-0.355376 -2.840858,-1.40861 -3.27944,-1.740136 -0.293717,-0.222022 -0.435522,-0.393995 -0.453799,-0.550342 -0.05685,-0.486275 0.950573,-2.415872 1.695559,-3.247644 0.389804,-0.435214 0.391396,-0.43597 0.727928,-0.346013 0.548851,0.146711 3.581491,1.066785 3.613814,1.096397 0.06136,0.05621 -0.361482,1.743067 -0.684437,2.730444 -0.330478,1.010379 -0.887287,2.190527 -1.054136,2.234224 -0.04699,0.01231 -0.301463,-0.06731 -0.565489,-0.17693 z"
       id="path7826" />
    <path
       style="fill:#6d840d;fill-opacity:1;stroke-width:0.0854429"
       d="m 29.178741,16.524634 c -0.822388,-0.286583 -1.620211,-0.562143 -1.77294,-0.612356 -0.152729,-0.05021 -0.277689,-0.138287 -0.277689,-0.19572 0,-0.05743 0.08338,-0.483536 0.185284,-0.946896 0.155449,-0.706811 0.185504,-1.11765 0.186647,-2.551331 0.0015,-1.897267 -0.137827,-3.0737997 -0.497374,-4.1996713 -0.357802,-1.1204096 -0.279441,-1.1570407 0.474898,-0.2219976 1.923224,2.3839399 3.079634,5.0150149 3.452904,7.8560839 0.114805,0.873813 0.09498,1.21081 -0.0781,1.327717 -0.131458,0.08879 -0.03677,0.114581 -1.67363,-0.455829 z"
       id="path7865" />
    <path
       style="fill:#6d840d;fill-opacity:1;stroke-width:0.0854429"
       d="M 24.600969,14.069606 C 22.767143,12.439534 21.671597,11.055547 20.768281,9.2278302 19.717915,7.1025801 19.648575,6.6209732 20.201231,5.2893053 20.607194,4.3111054 20.97379,3.8022078 21.272496,3.8022078 c 0.289761,0 1.322097,0.3304123 1.668915,0.5341575 0.459277,0.2698117 1.012466,0.8233532 1.375088,1.3759659 1.187339,1.809427 1.892945,6.0524068 1.377848,8.2853238 -0.09567,0.414706 -0.190046,0.770118 -0.209732,0.789804 -0.01969,0.01969 -0.417328,-0.303346 -0.883646,-0.717853 z"
       id="path7904" />
    <path
       style="fill:#6d840d;fill-opacity:1;stroke-width:0.0854429"
       d="m 22.755038,19.549486 c -1.782426,-2.365492 -2.692717,-4.288887 -3.191658,-6.74379 -0.236315,-1.162723 -0.275168,-1.91173 -0.09917,-1.91173 0.156959,0 0.543492,0.433405 1.163856,1.304989 0.655649,0.921156 1.664635,1.997092 2.748327,2.930688 0.938979,0.808926 1.319143,1.177369 1.500657,1.454395 0.117828,0.179828 0.10319,0.257028 -0.187822,0.990603 -0.311129,0.784288 -1.041729,2.281364 -1.257055,2.575839 -0.0996,0.136212 -0.166162,0.07713 -0.677139,-0.600994 z"
       id="path7943" />
    <path
       style="fill:#6d840d;fill-opacity:1;stroke-width:0.0854429"
       d="M 15.478144,24.415301 C 13.362115,22.185797 12.47935,21.398225 10.905113,20.335404 l -0.885899,-0.5981 0.325338,-0.02748 c 1.382432,-0.116768 4.130975,0.61462 6.190716,1.647351 0.923787,0.463177 2.325831,1.368857 2.775309,1.792769 0.425484,0.401284 0.382551,0.603029 -0.214095,1.006042 -0.402073,0.271585 -2.451934,1.263269 -2.611242,1.263269 -0.02983,0 -0.483026,-0.45178 -1.007096,-1.003954 z"
       id="path7982" />
    <path
       style="fill:#6d840d;fill-opacity:1;stroke-width:0.0854429"
       d="M 9.6550446,26.098333 C 7.9261848,25.787568 6.5598599,25.362091 5.6188209,24.841445 4.9754599,24.485494 4.2266449,23.673404 3.8274398,22.89869 3.0506607,21.39124 3.1550186,21.227719 5.4364479,20.377495 l 1.0788615,-0.402061 1.7009286,0.863528 c 2.545179,1.292137 3.287805,1.839934 5.16006,3.806316 l 1.184368,1.243912 -0.786674,0.151896 c -1.228653,0.237235 -2.982058,0.261605 -4.1189474,0.05725 z"
       id="path8021" />
    <path
       style="fill:#6d840d;fill-opacity:1;stroke-width:0.0854429"
       d="m 14.863209,31.231485 c -2.268738,-0.407726 -4.735126,-1.422208 -6.4866947,-2.668126 -0.765881,-0.544783 -1.4225758,-1.18994 -1.2647649,-1.242544 0.050619,-0.01687 0.3167487,0.02705 0.5914001,0.0976 0.8361198,0.21479 2.5156765,0.316613 5.0278385,0.304811 1.31582,-0.0062 2.441309,-0.008 2.501086,-0.0041 0.195698,0.0128 0.619854,0.802758 0.87549,1.630525 0.313526,1.015221 0.495392,1.80458 0.447855,1.943825 -0.05027,0.147251 -0.650311,0.125278 -1.69221,-0.06197 z"
       id="path8060" />
    <path
       style="fill:#6d840d;fill-opacity:1;stroke-width:0.0854429"
       d="m 18.474209,31.17029 c -0.06005,-0.102581 -1.057788,-3.171293 -1.170135,-3.598947 -0.05324,-0.202662 -0.116506,-0.41983 -0.140592,-0.482596 -0.03013,-0.07851 0.563019,-0.423467 1.900717,-1.105413 1.069479,-0.545212 1.971228,-0.991294 2.003885,-0.991294 0.09295,0 1.307022,2.087477 1.753087,3.014253 0.244901,0.508825 0.41763,0.996947 0.441802,1.248506 0.03737,0.388876 0.02287,0.425595 -0.24774,0.627514 -0.514364,0.383799 -2.256349,0.97005 -3.491537,1.175048 -0.305458,0.0507 -0.657454,0.112388 -0.782212,0.137094 -0.124759,0.02471 -0.245032,0.01383 -0.267275,-0.02416 z"
       id="path8099" />
    <path
       style="fill:#6d840d;fill-opacity:1;stroke-width:0.0854429"
       d="m 24.913588,28.315494 c -0.107817,-0.14583 -0.560467,-0.943653 -1.005889,-1.772939 -0.445421,-0.829286 -0.963841,-1.712557 -1.152043,-1.962825 -0.421203,-0.560105 -0.40444,-0.646056 0.268099,-1.374712 l 0.505889,-0.5481 0.624394,0.429939 c 0.86789,0.597603 1.974485,1.207175 3.230403,1.779478 0.587419,0.267679 1.082564,0.500098 1.10032,0.516488 0.113484,0.104746 -3.061062,3.197818 -3.282052,3.197818 -0.0512,0 -0.181303,-0.119316 -0.289121,-0.265147 z"
       id="path8138" />
    <path
       style="fill:#6d840d;fill-opacity:1;stroke-width:0.0854429"
       d="m 22.727804,35.840609 c -0.563923,-0.229597 -1.505931,-0.536123 -2.09335,-0.68117 -2.011329,-0.496639 -2.136072,-0.577594 -2.136072,-1.38625 0,-0.490471 0.16639,-0.703758 0.705642,-0.904528 0.745305,-0.277486 4.487477,-1.237611 4.622199,-1.185913 0.19001,0.07291 0.258318,1.003055 0.19573,2.665263 -0.05404,1.435341 -0.109289,1.928385 -0.214713,1.916268 -0.02977,-0.0034 -0.515513,-0.194072 -1.079436,-0.42367 z"
       id="path8216" />
    <path
       style="fill:#6d840d;fill-opacity:1;stroke-width:0.0854429"
       d="m 20.378125,42.330219 c -0.211471,-0.09562 -0.990069,-0.505413 -1.730218,-0.910649 -1.068197,-0.584843 -1.345602,-0.773267 -1.345127,-0.913663 0.0011,-0.334743 1.008277,-3.995829 1.131587,-4.113448 0.0506,-0.04827 1.439191,0.234512 2.136037,0.434989 0.968885,0.278741 2.244175,0.82719 2.517386,1.082623 0.176851,0.165343 0.203898,0.253025 0.166334,0.539222 -0.05448,0.41506 -1.079648,2.484318 -1.68265,3.396354 -0.489578,0.740483 -0.562186,0.769966 -1.193349,0.484572 z"
       id="path8255" />
    <path
       style="fill:#6d840d;fill-opacity:1;stroke-width:0.0854429"
       d="m 7.0348334,40.220819 c 1.237624,-1.738083 7.1679946,-4.20887 9.1911316,-3.829328 0.280055,0.05254 0.307231,0.08295 0.307231,0.343816 0,0.347391 -0.244396,1.165888 -0.692667,2.319785 l -0.334923,0.862127 -2.882559,0.05505 c -3.5683751,0.06815 -4.8946929,0.176955 -5.6390379,0.462587 -0.1088226,0.04176 -0.097566,-0.0056 0.050824,-0.214042 z"
       id="path8294" />
    <path
       style="fill:#6d840d;fill-opacity:1;stroke-width:0.0854429"
       d="M 5.7673939,47.369739 C 5.12412,47.252139 3.9643527,46.754551 3.6505333,46.461519 3.387345,46.215765 3.3614338,46.152777 3.4122027,45.882155 3.4896797,45.469167 4.0119502,44.263602 4.3256902,43.773537 4.7789073,43.065608 6.029106,42.448498 7.8180228,42.049689 10.500081,41.45177 14.013491,41.307672 14.197821,41.788031 c 0.117147,0.305279 -0.758046,1.362749 -2.050651,2.477743 -1.589714,1.371277 -3.1893128,2.365191 -4.6281972,2.875737 -0.71935,0.255241 -1.2357574,0.322528 -1.7515789,0.228228 z"
       id="path8333" />
    <path
       style="fill:#6d840d;fill-opacity:1;stroke-width:0.0854429"
       d="m 10.72386,47.492572 c 2.021142,-1.376811 3.101659,-2.354552 4.617518,-4.178309 0.524898,-0.631513 0.989203,-1.148205 1.03179,-1.148205 0.04259,0 0.509345,0.215861 1.03724,0.479692 1.178476,0.588977 2.027845,1.175873 2.027845,1.401196 0,0.579014 -3.127811,2.574932 -4.998408,3.189582 -0.865053,0.284243 -2.349271,0.616256 -3.28955,0.735858 -0.399446,0.05081 -0.880062,0.114358 -1.068036,0.141222 -0.3198249,0.04571 -0.2786247,0.0058 0.641601,-0.621036 z"
       id="path8372" />
    <path
       style="fill:#6d840d;fill-opacity:1;stroke-width:0.0854429"
       d="m 22.937751,44.504044 c -0.308528,-0.288591 -0.423554,-0.459828 -0.423554,-0.630534 0,-0.269873 0.295179,-0.86447 1.215057,-2.447556 0.64996,-1.118566 0.945546,-1.737734 1.043728,-2.186315 0.105223,-0.480749 0.387736,-0.284521 2.205605,1.531964 0.787142,0.786544 1.431168,1.451805 1.431168,1.478358 0,0.02655 -0.659696,0.374193 -1.465991,0.772534 -1.518573,0.750233 -2.305788,1.211205 -2.787765,1.632442 -0.417736,0.365092 -0.704605,0.32956 -1.218248,-0.150893 z"
       id="path8411" />
    <path
       style="fill:#6d840d;fill-opacity:1;stroke-width:0.0854429"
       d="m 26.469082,49.834555 c -0.316337,-0.792282 -0.962697,-2.021462 -1.404058,-2.670089 -0.255816,-0.375949 -0.492447,-0.728274 -0.525848,-0.782945 -0.141935,-0.232321 4.708072,-2.729526 4.908785,-2.527469 0.120451,0.121258 0.679213,1.661235 0.885741,2.441146 0.251783,0.950814 0.498208,2.541924 0.406676,2.62582 -0.07562,0.06931 -3.889346,1.27667 -4.032668,1.27667 -0.0515,0 -0.158884,-0.16341 -0.238628,-0.363133 z"
       id="path8450" />
    <path
       style="fill:#6d840d;fill-opacity:1;stroke-width:0.0854429"
       d="m 19.37892,56.200049 c 0.0741,-1.451436 0.447345,-2.83459 1.257486,-4.659902 0.225015,-0.506978 0.614609,-1.250449 0.865765,-1.652159 0.45754,-0.731809 1.726494,-2.33903 1.846742,-2.33903 0.07033,0 1.003862,1.52446 1.308063,2.136072 0.230738,0.46391 0.245148,0.963255 0.03945,1.367086 -0.08378,0.164478 -0.928133,1.087261 -1.876345,2.050629 -1.731806,1.759488 -2.122494,2.216051 -2.942865,3.439076 -0.244295,0.3642 -0.467883,0.662182 -0.496863,0.662182 -0.02898,0 -0.02963,-0.451779 -0.0014,-1.003954 z"
       id="path8489" />
    <path
       style="fill:#6d840d;fill-opacity:1;stroke-width:0.0854429"
       d="m 20.860142,63.917716 c -0.179994,-0.274706 -0.68706,-1.511893 -0.858211,-2.093945 -0.270072,-0.918461 -0.161686,-1.413738 0.674422,-3.081796 0.799335,-1.594696 2.145571,-3.457119 3.464523,-4.792924 0.354248,-0.358774 0.774895,-0.71996 0.934772,-0.802635 0.284033,-0.14688 0.294065,-0.146144 0.43844,0.03215 0.233499,0.288358 0.332504,0.95095 0.330816,2.21398 -0.0017,1.304602 -0.150681,2.525522 -0.469434,3.848217 -0.518851,2.153029 -1.358661,3.480876 -2.601895,4.113935 -0.355618,0.181081 -1.695978,0.770176 -1.752373,0.770176 -0.01393,0 -0.0864,-0.09322 -0.16106,-0.20716 z"
       id="path8528" />
    <path
       style="fill:#6d840d;fill-opacity:1;stroke-width:0.0854429"
       d="m 26.871783,60.393237 c 0,-0.05196 0.07826,-0.473593 0.173909,-0.936953 0.577515,-2.797688 0.63854,-4.078726 0.29424,-6.176706 -0.118466,-0.721873 -0.204977,-1.320348 -0.192246,-1.329942 0.09028,-0.06804 2.058077,-0.818015 2.337882,-0.891025 0.664179,-0.173306 1.263136,-0.264185 1.417748,-0.215113 0.209267,0.06642 0.203597,0.499509 -0.02097,1.601456 -0.426763,2.094163 -1.523101,4.799714 -2.603601,6.425185 -0.444304,0.668398 -1.406966,1.710519 -1.406966,1.523098 z"
       id="path8567" />
    <path
       style="fill:#6d840d;fill-opacity:1;stroke-width:0.0854429"
       d="m 32.831422,48.65745 c -0.244773,-0.150063 -0.370651,-0.480491 -0.830827,-2.180901 -0.240986,-0.890473 -0.51368,-1.865289 -0.605987,-2.166259 -0.153229,-0.499603 -0.156097,-0.560185 -0.03296,-0.696249 0.412222,-0.4555 3.661346,-0.49236 4.268464,-0.04842 0.143169,0.104688 0.139455,0.14583 -0.07101,0.786621 -0.122144,0.371886 -0.397701,1.304764 -0.612351,2.073064 -0.441369,1.579803 -0.619347,1.987102 -0.930196,2.128734 -0.325339,0.148234 -1.014009,0.208327 -1.185135,0.103414 z"
       id="path8606" />
    <path
       style="fill:#6d840d;fill-opacity:1;stroke-width:0.0854429"
       d="m 39.517328,49.928594 c -0.211471,-0.09437 -0.976326,-0.32393 -1.699679,-0.510136 -1.500218,-0.386186 -1.611948,-0.433132 -1.680455,-0.706084 -0.06515,-0.259559 0.20716,-1.391867 0.65241,-2.712871 0.599395,-1.77833 0.82858,-2.108078 1.387011,-1.995599 0.530173,0.106787 3.071907,1.43527 3.46535,1.811227 0.35865,0.342711 0.374197,0.377692 0.332452,0.748051 -0.09564,0.848481 -1.635825,3.574301 -2.001941,3.543027 -0.03886,-0.0033 -0.243676,-0.08325 -0.455148,-0.177615 z"
       id="path8645" />
    <path
       style="fill:#6d840d;fill-opacity:1;stroke-width:0.0854429"
       d="m 39.478699,59.790584 c -1.629088,-1.846398 -2.526181,-3.677622 -3.171645,-6.474232 -0.259091,-1.122565 -0.367352,-2.336291 -0.216696,-2.429401 0.169074,-0.104494 1.044821,0.06998 2.317833,0.461773 0.664331,0.204462 1.227893,0.391767 1.252361,0.416235 0.02447,0.02447 -0.0028,0.809218 -0.06069,1.74389 -0.05785,0.934672 -0.08488,2.350307 -0.06008,3.145854 0.04003,1.283834 0.07898,1.580882 0.346419,2.642209 0.165724,0.657666 0.290635,1.206439 0.277579,1.219495 -0.01306,0.01306 -0.32134,-0.313564 -0.685078,-0.725823 z"
       id="path8684" />
    <path
       style="fill:#6d840d;fill-opacity:1;stroke-width:0.0854429"
       d="m 44.589772,63.533356 c -1.393549,-0.689373 -1.681678,-0.955583 -2.171588,-2.006385 -0.591883,-1.269524 -0.92879,-2.580316 -1.150619,-4.476675 -0.217559,-1.859851 -0.150476,-3.447858 0.15871,-3.757044 0.232622,-0.232622 0.556985,-0.0337 1.609311,0.986969 1.494034,1.44908 2.435924,2.706705 3.268013,4.363491 0.7706,1.534358 0.904755,2.350373 0.565935,3.442383 -0.308561,0.994488 -0.83093,2.038781 -1.019825,2.038781 -0.03531,0 -0.602281,-0.266184 -1.259937,-0.59152 z"
       id="path8723" />
    <path
       style="fill:#6d840d;fill-opacity:1;stroke-width:0.0854429"
       d="m 47.015728,56.378034 c -1.3049,-1.902291 -3.199947,-3.873313 -4.700145,-4.888578 -0.316328,-0.214076 -0.40584,-0.325589 -0.40579,-0.505527 7.3e-5,-0.260125 0.928299,-2.21818 1.404257,-2.962222 l 0.3119,-0.487577 0.229651,0.150473 c 0.843335,0.552574 2.396077,3.400875 3.209865,5.888078 0.356599,1.089883 0.709811,3.045677 0.601171,3.328788 -0.08822,0.229891 -0.190671,0.147503 -0.650909,-0.523435 z"
       id="path8762" />
    <path
       style="fill:#6d840d;fill-opacity:1;stroke-width:0.0854429"
       d="m 43.202435,44.84021 c -0.06441,-0.02559 -0.429674,-0.257411 -0.811707,-0.515156 -0.382034,-0.257745 -1.398083,-0.811478 -2.257889,-1.230518 l -1.563282,-0.76189 0.367082,-0.530959 c 0.201895,-0.292028 0.636227,-0.800989 0.965182,-1.131025 0.599694,-0.601663 2.09313,-1.804557 2.093603,-1.6863 4.85e-4,0.121319 1.786878,3.439738 2.173117,4.036803 0.214454,0.331513 0.389917,0.673163 0.389917,0.759223 0,0.193044 -0.444556,0.763875 -0.753655,0.967729 -0.231546,0.152706 -0.38917,0.176804 -0.602368,0.09209 z"
       id="path8801" />
    <path
       style="fill:#6d840d;fill-opacity:1;stroke-width:0.0854429"
       d="m 45.460446,41.93109 c -0.503577,-0.709463 -1.612565,-2.850814 -1.744472,-3.36841 -0.05956,-0.233724 -0.05006,-0.356546 0.03725,-0.481188 0.290572,-0.41485 2.653434,-1.337744 4.009346,-1.565983 0.375948,-0.06328 0.715495,-0.115461 0.754547,-0.115953 0.09177,-0.0012 1.19523,3.594045 1.203989,3.922723 0.0057,0.213442 -0.06983,0.301007 -0.521665,0.604855 -0.685183,0.460774 -2.949384,1.666138 -3.129736,1.666138 -0.07658,0 -0.350746,-0.297982 -0.609255,-0.662182 z"
       id="path8840" />
    <path
       style="fill:#6d840d;fill-opacity:1;stroke-width:0.0854429"
       d="m 54.683438,47.801783 c -1.884529,-0.392451 -3.456436,-0.937238 -4.447152,-1.541279 -1.086315,-0.662329 -2.092452,-1.384736 -2.637665,-1.893845 -0.423698,-0.395641 -0.430039,-0.408675 -0.26327,-0.541106 0.505781,-0.401639 2.99879,-1.492526 3.393133,-1.484761 0.146101,0.0029 0.40047,0.264565 1.007175,1.036158 1.029811,1.309688 2.27764,2.495198 3.665285,3.482235 0.599213,0.426223 1.179838,0.871134 1.290277,0.988691 l 0.200798,0.21374 -0.50619,-0.0054 c -0.278405,-0.0029 -1.044481,-0.117461 -1.702391,-0.25447 z"
       id="path8879" />
    <path
       style="fill:#6d840d;fill-opacity:1;stroke-width:0.0854429"
       d="m 58.784696,40.197941 c -1.034597,-0.24059 -2.842581,-0.352896 -5.200369,-0.32303 l -2.124425,0.02691 -0.413527,-1.171823 c -0.529305,-1.499903 -0.678239,-2.179551 -0.503704,-2.298609 0.459769,-0.313628 4.327046,0.589873 5.896511,1.377586 1.332264,0.668662 3.22768,1.967849 3.478356,2.384192 0.100547,0.166997 0.08945,0.178108 -0.170886,0.171159 -0.153127,-0.0041 -0.586007,-0.07896 -0.961956,-0.166385 z"
       id="path8918" />
    <path
       style="fill:#6d840d;fill-opacity:1;stroke-width:0.0854429"
       d="m 59.189693,47.002389 c -0.623136,-0.253158 -1.396634,-0.616925 -1.718884,-0.80837 -1.065137,-0.632787 -2.48967,-1.741324 -3.630629,-2.82527 -0.492576,-0.467962 -1.250092,-1.407558 -1.250092,-1.550569 0,-0.189973 0.79231,-0.288878 2.306957,-0.287979 1.858041,0.0011 2.94573,0.120691 4.278845,0.470448 2.140019,0.561457 3.251408,1.39531 4.08467,3.064644 0.244703,0.49023 0.433544,0.970846 0.419647,1.068036 -0.05531,0.386829 -2.178626,1.330698 -2.991424,1.329767 -0.244938,-2.82e-4 -0.741109,-0.152766 -1.49909,-0.460707 z"
       id="path8957" />
    <path
       style="fill:#5a6f08;fill-opacity:1;stroke-width:0.0854429"
       d="M 32.66019,9.0069031 C 31.580474,8.7524334 30.4087,7.6137046 30.070625,6.4903676 29.530757,4.696522 30.896981,2.5421448 32.798406,2.1889729 c 0.648727,-0.1204951 1.538586,0.025991 2.233172,0.3676182 1.828854,0.8995102 2.5018,2.9222226 1.56005,4.689128 -0.702834,1.3186512 -2.463158,2.1072314 -3.931438,1.761184 z"
       id="path10634" />
    <path
       style="fill:#5a6f08;fill-opacity:1;stroke-width:0.0854429"
       d="m 4.4939667,37.169243 c -1.079716,-0.25447 -2.25149,-1.393198 -2.589565,-2.516536 -0.539868,-1.793845 0.826356,-3.948222 2.727781,-4.301394 0.648727,-0.120495 1.538586,0.02599 2.233172,0.367618 1.828854,0.89951 2.5018,2.922222 1.56005,4.689128 -0.702834,1.318651 -2.463158,2.107231 -3.931438,1.761184 z"
       id="path10634-0" />
    <path
       style="fill:#5a6f08;fill-opacity:1;stroke-width:0.0854429"
       d="m 12.520502,17.292074 c -0.848461,-0.257104 -1.971334,-1.440436 -2.315178,-2.439836 -0.6137762,-1.783971 0.387976,-3.661994 2.255987,-4.229385 0.472736,-0.143589 0.734443,-0.170355 1.332343,-0.136265 1.008675,0.05751 1.640458,0.340734 2.265098,1.01542 0.678434,0.73279 0.854048,1.238645 0.856765,2.467902 0.002,0.917354 -0.014,1.013319 -0.241439,1.445383 -0.340907,0.647626 -1.012829,1.288089 -1.712883,1.632687 -0.520936,0.256429 -0.679749,0.292668 -1.367086,0.31195 -0.427723,0.012 -0.910846,-0.01854 -1.073607,-0.06786 z"
       id="path10673" />
    <path
       style="fill:#5a6f08;fill-opacity:1;stroke-width:0.0854429"
       d="m 12.773709,57.213591 c -1.506392,-0.487588 -2.379502,-1.365737 -2.660465,-2.675821 -0.2577775,-1.201977 0.363135,-2.857608 1.356007,-3.615722 1.247565,-0.952587 3.107869,-0.823524 4.326956,0.300191 0.842911,0.776968 1.200507,1.676423 1.149728,2.891894 -0.02385,0.570935 -0.08115,0.847649 -0.250572,1.210127 -0.4038,0.863922 -1.312435,1.545873 -2.548715,1.912865 -0.577381,0.171397 -0.781514,0.167898 -1.372939,-0.02353 z"
       id="path10751" />
    <path
       style="fill:#5a6f08;fill-opacity:1;stroke-width:0.0854429"
       d="m 32.563012,65.398553 c -1.031616,-0.354805 -1.845767,-1.056125 -2.260201,-1.946966 -0.45647,-0.981199 -0.312705,-2.475906 0.331717,-3.448805 0.951206,-1.436058 3.118442,-1.86691 4.610657,-0.91661 1.209054,0.769972 1.941603,2.223979 1.71347,3.400998 -0.268368,1.384612 -1.259312,2.52215 -2.542337,2.918436 -0.698364,0.215703 -1.211307,0.21375 -1.853306,-0.0071 z"
       id="path10790" />
    <path
       style="fill:#5a6f08;fill-opacity:1;stroke-width:0.0854429"
       d="m 52.504645,57.177238 c -0.258465,-0.106477 -0.705082,-0.353412 -0.992482,-0.548744 -0.91293,-0.620475 -1.264506,-1.177684 -1.415139,-2.242845 -0.291868,-2.063863 0.781685,-3.576828 2.883957,-4.064377 0.710155,-0.164696 1.174574,-0.08226 2.010062,0.356771 0.722279,0.379547 1.285801,0.970631 1.641776,1.722077 0.252689,0.533414 0.27201,0.638564 0.270404,1.471611 -0.0015,0.788437 -0.02909,0.95594 -0.227552,1.382311 -0.436666,0.938138 -1.125149,1.504158 -2.315734,1.903824 -0.793303,0.266303 -1.244452,0.271013 -1.855292,0.01937 z"
       id="path10829" />
    <path
       style="fill:#5a6f08;fill-opacity:1;stroke-width:0.0854429"
       d="m 60.93738,37.202394 c -1.7293,-0.252773 -2.94608,-2.040352 -2.641206,-3.880211 0.267048,-1.611584 1.290946,-2.666925 2.869692,-2.957821 1.45866,-0.268768 3.045183,0.629237 3.753504,2.124562 0.251345,0.530609 0.273467,0.646801 0.272622,1.431896 -8.29e-4,0.770954 -0.02449,0.899362 -0.242156,1.31435 -0.293894,0.560311 -0.912237,1.236268 -1.377399,1.505737 -0.686437,0.397654 -1.77159,0.587701 -2.635057,0.461487 z"
       id="path10868" />
    <path
       style="fill:#5a6f08;fill-opacity:1;stroke-width:0.0854429"
       d="m 52.532743,17.227377 c -0.58374,-0.216729 -1.08177,-0.568234 -1.634928,-1.153916 -0.685335,-0.725631 -0.822624,-1.097431 -0.824075,-2.231716 -0.0011,-0.841329 0.02279,-0.991406 0.227635,-1.431394 0.26862,-0.576973 0.972753,-1.353254 1.51853,-1.674124 0.365922,-0.215132 0.444809,-0.226754 1.539169,-0.226754 1.381661,0 1.597178,0.08443 2.487205,0.974347 0.921021,0.920908 1.290602,1.86312 1.099897,2.804078 -0.233663,1.152914 -1.146824,2.392891 -2.091852,2.840518 -0.596883,0.282722 -1.69999,0.329744 -2.321581,0.09896 z"
       id="path10907" />
    <path
       style="fill:#93ad18;fill-opacity:1;stroke-width:0.0854429"
       d="m 35.886008,41.895449 c -0.75931,-0.149557 -1.0637,-0.162009 -2.734174,-0.111845 -1.033858,0.03105 -2.093711,0.06251 -2.355228,0.06993 l -0.475486,0.01348 -2.270874,-2.30917 -2.270874,-2.309168 -0.05608,-3.372782 -0.05608,-3.372782 0.853504,-0.631033 c 1.110093,-0.820739 2.183151,-1.894575 2.944628,-2.946762 l 0.610538,-0.843622 3.374993,0.05821 3.374993,0.05821 2.32832,2.322801 2.32832,2.322801 v 3.297171 3.297171 l -0.88332,0.69725 c -1.01327,0.799817 -2.31465,2.112891 -3.16922,3.197686 -0.32393,0.411194 -0.61159,0.743829 -0.63925,0.73919 -0.0277,-0.0046 -0.43479,-0.08417 -0.90472,-0.17673 z"
       id="path12920" />
    </g>
</svg>